<svg width="304" height="51" viewBox="0 0 304 51" fill="none" xmlns="http://www.w3.org/2000/svg">
<path d="M27.9056 32.8485H26.456V35.7879H27.9056V32.8485Z" fill="#00FFCC"/>
<path d="M27.9056 15.2118H26.456V18.1512H27.9056V15.2118Z" fill="#00FFCC"/>
<path d="M19.9326 24.765H17.0333V26.2347H19.9326V24.765Z" fill="#00FFCC"/>
<path d="M37.3284 24.765H34.4291V26.2347H37.3284V24.765Z" fill="#00FFCC"/>
<path d="M34.866 32.2553L32.8149 30.1758L31.7898 31.2151L33.8409 33.2946L34.866 32.2553Z" fill="#00FFCC"/>
<path d="M22.5656 19.7847L20.5145 17.7052L19.4895 18.7445L21.5406 20.824L22.5656 19.7847Z" fill="#00FFCC"/>
<path d="M22.5687 31.2147L21.5436 30.1755L19.4925 32.255L20.5175 33.2942L22.5687 31.2147Z" fill="#00FFCC"/>
<path d="M34.8681 18.7445L33.843 17.7052L31.7919 19.7847L32.817 20.824L34.8681 18.7445Z" fill="#00FFCC"/>
<path d="M36.4115 50.4999C33.7877 50.4999 30.8217 49.4822 27.7195 47.4763C22.8744 44.344 18.2286 39.1463 14.6382 32.8412C11.0478 26.5361 8.93098 19.8588 8.67765 14.0383C8.41708 8.04623 10.1614 3.64147 13.5894 1.63456C17.0175 -0.372345 21.6527 0.298952 26.6406 3.52353C31.4856 6.65587 36.1314 11.8535 39.7218 18.1587C43.3122 24.4638 45.4291 31.1411 45.6824 36.9616C45.943 42.9536 44.1983 47.3584 40.7703 49.3649C39.4746 50.1237 38.0058 50.4999 36.4115 50.4999ZM17.9568 1.96966C16.6119 1.96966 15.3859 2.28014 14.3142 2.90734C11.3773 4.62619 9.88992 8.55622 10.1255 13.9733C10.3687 19.5619 12.417 26.0018 15.8936 32.1063C19.3699 38.2108 23.846 43.2288 28.4983 46.237C33.0078 49.1526 37.1081 49.811 40.0451 48.0925C42.9821 46.3737 44.4694 42.4436 44.2338 37.0266C43.9907 31.438 41.9423 24.998 38.4657 18.8935C34.9894 12.789 30.5133 7.77102 25.861 4.76287C22.9969 2.91102 20.2976 1.96966 17.9568 1.96966Z" fill="#EFEFEF"/>
<path d="M17.9503 50.5C16.3557 50.5 14.8876 50.1241 13.5916 49.3654C10.1636 47.3588 8.41926 42.9537 8.67948 36.962C8.9328 31.1415 11.0496 24.4638 14.6401 18.1591C18.2305 11.8543 22.8762 6.65667 27.7213 3.52396C32.7088 0.299749 37.3444 -0.372283 40.7725 1.63499C44.2005 3.64153 45.9448 8.04666 45.6846 14.0384C45.4313 19.8588 43.3144 26.5365 39.724 32.8413C36.1336 39.146 31.4878 44.3437 26.6428 47.4764C23.5405 49.4818 20.5745 50.5 17.9503 50.5ZM36.405 1.96972C34.0642 1.96972 31.3653 2.91108 28.5005 4.76293C23.8482 7.77109 19.3721 12.7891 15.8958 18.8936C12.4192 24.9981 10.3708 31.4377 10.1277 37.0267C9.8921 42.4437 11.3794 46.3737 14.3164 48.0926C17.2527 49.8111 21.3534 49.1526 25.8632 46.2371C30.5155 43.2289 34.9916 38.2109 38.4679 32.1064C41.9445 26.0019 43.9928 19.5623 44.236 13.9733C44.4716 8.55629 42.9842 4.62625 40.0473 2.90741C38.9763 2.28057 37.7496 1.96972 36.405 1.96972Z" fill="#EFEFEF"/>
<path d="M27.1808 40.1825C20 40.1825 13.2374 38.7021 8.13939 36.0143C2.89059 33.2472 0 29.513 0 25.4999C0 21.4868 2.89059 17.7526 8.13939 14.9855C13.2374 12.2978 20 10.8174 27.1808 10.8174C34.3617 10.8174 41.1243 12.2978 46.2223 14.9855C51.4711 17.7526 54.3617 21.4868 54.3617 25.4999C54.3617 29.513 51.4711 33.2472 46.2223 36.0143C41.1243 38.7021 34.3617 40.1825 27.1808 40.1825ZM27.1808 12.2871C12.9928 12.2871 1.44965 18.2141 1.44965 25.4999C1.44965 32.7857 12.9928 38.7127 27.1808 38.7127C41.3689 38.7127 52.912 32.7857 52.912 25.4999C52.912 18.2141 41.3689 12.2871 27.1808 12.2871Z" fill="#EFEFEF"/>
<path d="M27.1809 31.0113C30.1832 31.0113 32.617 28.5438 32.617 25.4999C32.617 22.456 30.1832 19.9884 27.1809 19.9884C24.1785 19.9884 21.7447 22.456 21.7447 25.4999C21.7447 28.5438 24.1785 31.0113 27.1809 31.0113Z" fill="#00FFCC"/>
<path d="M27.1809 31.7462C23.7837 31.7462 21.0199 28.9442 21.0199 25.4999C21.0199 22.0556 23.7837 19.2535 27.1809 19.2535C30.5782 19.2535 33.3419 22.0556 33.3419 25.4999C33.3419 28.9442 30.5782 31.7462 27.1809 31.7462ZM27.1809 20.7233C24.5832 20.7233 22.4696 22.8661 22.4696 25.4999C22.4696 28.1336 24.5832 30.2765 27.1809 30.2765C29.7787 30.2765 31.8923 28.1336 31.8923 25.4999C31.8923 22.8661 29.7787 20.7233 27.1809 20.7233Z" fill="#00FFCC"/>
<path d="M69.8136 26.5844C67.2436 26.5844 64.9138 26.032 62.8241 24.9271C60.7585 23.7982 59.1252 22.249 57.9243 20.2795C56.7474 18.2859 56.1589 16.0401 56.1589 13.5422C56.1589 11.0442 56.7474 8.8105 57.9243 6.84096C59.1252 4.8474 60.7585 3.29819 62.8241 2.19332C64.9138 1.06444 67.2556 0.5 69.8496 0.5C72.0353 0.5 74.0049 0.8843 75.7582 1.6529C77.5356 2.4215 79.0248 3.52637 80.2257 4.96749L76.4788 8.4262C74.7735 6.45666 72.6598 5.47189 70.1379 5.47189C68.5766 5.47189 67.1835 5.82016 65.9586 6.5167C64.7336 7.18923 63.7729 8.13797 63.0763 9.36293C62.4038 10.5879 62.0675 11.981 62.0675 13.5422C62.0675 15.1034 62.4038 16.4965 63.0763 17.7215C63.7729 18.9464 64.7336 19.9072 65.9586 20.6037C67.1835 21.2762 68.5766 21.6125 70.1379 21.6125C72.6598 21.6125 74.7735 20.6157 76.4788 18.6222L80.2257 22.0809C79.0248 23.546 77.5356 24.6629 75.7582 25.4315C73.9809 26.2001 71.9993 26.5844 69.8136 26.5844Z" fill="#EFEFEF"/>
<path d="M96.7537 26.5844C94.1356 26.5844 91.7698 26.0199 89.6561 24.8911C87.5665 23.7622 85.9212 22.213 84.7203 20.2434C83.5433 18.2499 82.9549 16.0161 82.9549 13.5422C82.9549 11.0683 83.5433 8.84652 84.7203 6.87698C85.9212 4.88343 87.5665 3.32221 89.6561 2.19332C91.7698 1.06444 94.1356 0.5 96.7537 0.5C99.3717 0.5 101.726 1.06444 103.815 2.19332C105.905 3.32221 107.55 4.88343 108.751 6.87698C109.952 8.84652 110.552 11.0683 110.552 13.5422C110.552 16.0161 109.952 18.2499 108.751 20.2434C107.55 22.213 105.905 23.7622 103.815 24.8911C101.726 26.0199 99.3717 26.5844 96.7537 26.5844ZM96.7537 21.6125C98.2428 21.6125 99.5879 21.2762 100.789 20.6037C101.99 19.9072 102.926 18.9464 103.599 17.7215C104.296 16.4965 104.644 15.1034 104.644 13.5422C104.644 11.981 104.296 10.5879 103.599 9.36293C102.926 8.13797 101.99 7.18923 100.789 6.5167C99.5879 5.82016 98.2428 5.47189 96.7537 5.47189C95.2645 5.47189 93.9194 5.82016 92.7185 6.5167C91.5176 7.18923 90.5688 8.13797 89.8723 9.36293C89.1998 10.5879 88.8635 11.981 88.8635 13.5422C88.8635 15.1034 89.1998 16.4965 89.8723 17.7215C90.5688 18.9464 91.5176 19.9072 92.7185 20.6037C93.9194 21.2762 95.2645 21.6125 96.7537 21.6125Z" fill="#EFEFEF"/>
<path d="M138.79 26.1521L138.753 11.0202L131.332 23.486H128.702L121.316 11.3445V26.1521H115.84V0.932337H120.667L130.107 16.6046L139.402 0.932337H144.194L144.266 26.1521H138.79Z" fill="#EFEFEF"/>
<path d="M174.1 26.1521L174.064 11.0202L166.642 23.486H164.012L156.626 11.3445V26.1521H151.15V0.932337H155.978L165.417 16.6046L174.712 0.932337H179.504L179.576 26.1521H174.1Z" fill="#EFEFEF"/>
<path d="M197.665 26.5844C194.062 26.5844 191.252 25.5876 189.235 23.5941C187.241 21.6005 186.244 18.7543 186.244 15.0554V0.932337H192.081V14.8392C192.081 19.3547 193.954 21.6125 197.701 21.6125C199.527 21.6125 200.92 21.0721 201.88 19.9912C202.841 18.8864 203.322 17.169 203.322 14.8392V0.932337H209.086V15.0554C209.086 18.7543 208.077 21.6005 206.06 23.5941C204.066 25.5876 201.268 26.5844 197.665 26.5844Z" fill="#EFEFEF"/>
<path d="M238.884 0.932337V26.1521H234.093L221.519 10.8401V26.1521H215.754V0.932337H220.582L233.12 16.2443V0.932337H238.884Z" fill="#EFEFEF"/>
<path d="M245.752 0.932337H251.589V26.1521H245.752V0.932337Z" fill="#EFEFEF"/>
<path d="M263.699 5.68806H255.628V0.932337H277.605V5.68806H269.535V26.1521H263.699V5.68806Z" fill="#EFEFEF"/>
<path d="M293.295 17.2171V26.1521H287.458V17.145L277.694 0.932337H283.891L290.629 12.1371L297.366 0.932337H303.094L293.295 17.2171Z" fill="#EFEFEF"/>
<path d="M63.1034 50.5C61.6802 50.5 60.3022 50.2838 58.9691 49.8515C57.6541 49.4011 56.6183 48.8247 55.8617 48.1221L56.8615 46.0145C57.582 46.663 58.5008 47.1944 59.6176 47.6087C60.7525 48.0051 61.9144 48.2032 63.1034 48.2032C64.6706 48.2032 65.8415 47.942 66.6161 47.4196C67.3907 46.8792 67.778 46.1676 67.778 45.2849C67.778 44.6364 67.5618 44.114 67.1295 43.7177C66.7152 43.3034 66.1928 42.9881 65.5623 42.772C64.9498 42.5558 64.0761 42.3126 62.9412 42.0424C61.5181 41.7001 60.3652 41.3579 59.4825 41.0156C58.6178 40.6733 57.8703 40.1509 57.2398 39.4484C56.6273 38.7278 56.3211 37.764 56.3211 36.5571C56.3211 35.5483 56.5823 34.6386 57.1047 33.828C57.6451 33.0173 58.4557 32.3688 59.5366 31.8824C60.6174 31.3961 61.9595 31.1529 63.5627 31.1529C64.6796 31.1529 65.7784 31.297 66.8593 31.5852C67.9401 31.8734 68.8679 32.2878 69.6425 32.8282L68.7508 34.9899C67.9581 34.4855 67.1115 34.1072 66.2108 33.855C65.3101 33.5848 64.4274 33.4497 63.5627 33.4497C62.0315 33.4497 60.8786 33.7289 60.104 34.2873C59.3474 34.8458 58.9691 35.5663 58.9691 36.449C58.9691 37.0975 59.1853 37.6289 59.6176 38.0433C60.05 38.4396 60.5814 38.7548 61.2119 38.989C61.8604 39.2052 62.7341 39.4394 63.8329 39.6916C65.256 40.0338 66.3999 40.3761 67.2646 40.7184C68.1293 41.0606 68.8679 41.583 69.4803 42.2856C70.1108 42.9881 70.4261 43.9339 70.4261 45.1228C70.4261 46.1136 70.1559 47.0233 69.6154 47.8519C69.075 48.6626 68.2554 49.3111 67.1565 49.7975C66.0577 50.2658 64.7066 50.5 63.1034 50.5Z" fill="#EFEFEF"/>
<path d="M81.7505 50.5C79.859 50.5 78.1476 50.0857 76.6164 49.257C75.1033 48.4104 73.9143 47.2575 73.0497 45.7983C72.185 44.3212 71.7526 42.6639 71.7526 40.8264C71.7526 38.989 72.185 37.3407 73.0497 35.8816C73.9143 34.4044 75.1123 33.2515 76.6435 32.4229C78.1747 31.5762 79.886 31.1529 81.7775 31.1529C83.2546 31.1529 84.6057 31.4051 85.8307 31.9095C87.0556 32.3958 88.1004 33.1254 88.9651 34.0982L87.2087 35.8005C85.7856 34.3053 84.0112 33.5578 81.8856 33.5578C80.4805 33.5578 79.2105 33.873 78.0756 34.5035C76.9407 35.134 76.049 36.0077 75.4005 37.1245C74.77 38.2234 74.4548 39.4574 74.4548 40.8264C74.4548 42.1955 74.77 43.4385 75.4005 44.5554C76.049 45.6542 76.9407 46.5189 78.0756 47.1494C79.2105 47.7799 80.4805 48.0951 81.8856 48.0951C83.9932 48.0951 85.7676 47.3385 87.2087 45.8253L88.9651 47.5277C88.1004 48.5004 87.0466 49.239 85.8036 49.7434C84.5787 50.2478 83.2276 50.5 81.7505 50.5Z" fill="#EFEFEF"/>
<path d="M91.739 31.369H94.4411V50.2838H91.739V31.369Z" fill="#EFEFEF"/>
<path d="M112.75 47.933V50.2838H99.0231V31.369H112.372V33.7199H101.725V39.5294H111.21V41.8262H101.725V47.933H112.75Z" fill="#EFEFEF"/>
<path d="M132.311 31.369V50.2838H130.095L118.746 36.1788V50.2838H116.044V31.369H118.26L129.609 45.4741V31.369H132.311Z" fill="#EFEFEF"/>
<path d="M145.349 50.5C143.458 50.5 141.747 50.0857 140.215 49.257C138.702 48.4104 137.513 47.2575 136.649 45.7983C135.784 44.3212 135.352 42.6639 135.352 40.8264C135.352 38.989 135.784 37.3407 136.649 35.8816C137.513 34.4044 138.711 33.2515 140.242 32.4229C141.774 31.5762 143.485 31.1529 145.376 31.1529C146.853 31.1529 148.205 31.4051 149.43 31.9095C150.654 32.3958 151.699 33.1254 152.564 34.0982L150.808 35.8005C149.384 34.3053 147.61 33.5578 145.484 33.5578C144.079 33.5578 142.809 33.873 141.674 34.5035C140.54 35.134 139.648 36.0077 138.999 37.1245C138.369 38.2234 138.054 39.4574 138.054 40.8264C138.054 42.1955 138.369 43.4385 138.999 44.5554C139.648 45.6542 140.54 46.5189 141.674 47.1494C142.809 47.7799 144.079 48.0951 145.484 48.0951C147.592 48.0951 149.366 47.3385 150.808 45.8253L152.564 47.5277C151.699 48.5004 150.645 49.239 149.402 49.7434C148.178 50.2478 146.826 50.5 145.349 50.5Z" fill="#EFEFEF"/>
<path d="M169.065 47.933V50.2838H155.338V31.369H168.686V33.7199H158.04V39.5294H167.524V41.8262H158.04V47.933H169.065Z" fill="#EFEFEF"/>
<path d="M196.072 50.2838L196.045 36.5031L189.208 47.987H187.965L181.129 36.5841V50.2838H178.535V31.369H180.751L188.641 44.6634L196.423 31.369H198.639L198.666 50.2838H196.072Z" fill="#EFEFEF"/>
<path d="M211.097 50.5C208.575 50.5 206.612 49.7794 205.207 48.3383C203.802 46.8972 203.099 44.8256 203.099 42.1235V31.369H205.801V42.0154C205.801 46.0685 207.576 48.0951 211.124 48.0951C212.854 48.0951 214.178 47.5997 215.097 46.609C216.015 45.6002 216.475 44.069 216.475 42.0154V31.369H219.096V42.1235C219.096 44.8436 218.393 46.9242 216.988 48.3653C215.583 49.7884 213.619 50.5 211.097 50.5Z" fill="#EFEFEF"/>
<path d="M229.067 50.5C227.644 50.5 226.266 50.2838 224.933 49.8515C223.618 49.4011 222.582 48.8247 221.825 48.1221L222.825 46.0145C223.546 46.663 224.464 47.1944 225.581 47.6087C226.716 48.0051 227.878 48.2032 229.067 48.2032C230.634 48.2032 231.805 47.942 232.58 47.4196C233.354 46.8792 233.742 46.1676 233.742 45.2849C233.742 44.6364 233.525 44.114 233.093 43.7177C232.679 43.3034 232.156 42.9881 231.526 42.772C230.913 42.5558 230.04 42.3126 228.905 42.0424C227.482 41.7001 226.329 41.3579 225.446 41.0156C224.581 40.6733 223.834 40.1509 223.203 39.4484C222.591 38.7278 222.285 37.764 222.285 36.5571C222.285 35.5483 222.546 34.6386 223.068 33.828C223.609 33.0173 224.419 32.3688 225.5 31.8824C226.581 31.3961 227.923 31.1529 229.526 31.1529C230.643 31.1529 231.742 31.297 232.823 31.5852C233.904 31.8734 234.831 32.2878 235.606 32.8282L234.714 34.9899C233.922 34.4855 233.075 34.1072 232.174 33.855C231.274 33.5848 230.391 33.4497 229.526 33.4497C227.995 33.4497 226.842 33.7289 226.068 34.2873C225.311 34.8458 224.933 35.5663 224.933 36.449C224.933 37.0975 225.149 37.6289 225.581 38.0433C226.013 38.4396 226.545 38.7548 227.175 38.989C227.824 39.2052 228.698 39.4394 229.796 39.6916C231.22 40.0338 232.363 40.3761 233.228 40.7184C234.093 41.0606 234.831 41.583 235.444 42.2856C236.074 42.9881 236.39 43.9339 236.39 45.1228C236.39 46.1136 236.119 47.0233 235.579 47.8519C235.039 48.6626 234.219 49.3111 233.12 49.7975C232.021 50.2658 230.67 50.5 229.067 50.5Z" fill="#EFEFEF"/>
<path d="M252.983 47.933V50.2838H239.256V31.369H252.605V33.7199H241.958V39.5294H251.443V41.8262H241.958V47.933H252.983Z" fill="#EFEFEF"/>
<path d="M264.114 50.5C261.592 50.5 259.628 49.7794 258.223 48.3383C256.818 46.8972 256.115 44.8256 256.115 42.1235V31.369H258.818V42.0154C258.818 46.0685 260.592 48.0951 264.141 48.0951C265.87 48.0951 267.194 47.5997 268.113 46.609C269.032 45.6002 269.491 44.069 269.491 42.0154V31.369H272.112V42.1235C272.112 44.8436 271.409 46.9242 270.004 48.3653C268.599 49.7884 266.636 50.5 264.114 50.5Z" fill="#EFEFEF"/>
<path d="M294.108 50.2838L294.081 36.5031L287.244 47.987H286.001L279.165 36.5841V50.2838H276.571V31.369H278.787L286.677 44.6634L294.459 31.369H296.675L296.702 50.2838H294.108Z" fill="#EFEFEF"/>
</svg>
