<svg width="174" height="28" viewBox="0 0 174 28" fill="none" xmlns="http://www.w3.org/2000/svg">
<path d="M15.4001 18.0557H14.6001V19.6778H15.4001V18.0557Z" fill="#00FFCC"/>
<path d="M15.4001 8.32275H14.6001V9.94491H15.4001V8.32275Z" fill="#00FFCC"/>
<path d="M11 13.5947H9.40002V14.4058H11V13.5947Z" fill="#00FFCC"/>
<path d="M20.5999 13.5947H18.9999V14.4058H20.5999V13.5947Z" fill="#00FFCC"/>
<path d="M19.2411 17.7282L18.1091 16.5806L17.5435 17.1541L18.6754 18.3017L19.2411 17.7282Z" fill="#00FFCC"/>
<path d="M12.453 10.8463L11.3211 9.69873L10.7554 10.2722L11.8874 11.4199L12.453 10.8463Z" fill="#00FFCC"/>
<path d="M12.4547 17.1536L11.889 16.5801L10.7571 17.7277L11.3227 18.3012L12.4547 17.1536Z" fill="#00FFCC"/>
<path d="M19.2424 10.2722L18.6768 9.69873L17.5448 10.8463L18.1105 11.4199L19.2424 10.2722Z" fill="#00FFCC"/>
<path d="M20.094 27.7965C18.646 27.7965 17.0092 27.2349 15.2972 26.1279C12.6234 24.3993 10.0596 21.5309 8.07819 18.0514C6.09679 14.5719 4.92859 10.8869 4.78879 7.67485C4.64499 4.36807 5.60759 1.93726 7.49939 0.829732C9.39119 -0.277798 11.9492 0.0926632 14.7018 1.87217C17.3756 3.60079 19.9394 6.46917 21.9208 9.94871C23.9022 13.4282 25.0704 17.1132 25.2102 20.3253C25.354 23.632 24.3912 26.0629 22.4994 27.1702C21.7844 27.5889 20.9738 27.7965 20.094 27.7965ZM9.90959 1.01466C9.16739 1.01466 8.49079 1.186 7.89939 1.53213C6.27859 2.48069 5.45779 4.64952 5.58779 7.63895C5.72199 10.7231 6.85239 14.277 8.77099 17.6459C10.6894 21.0147 13.1596 23.7839 15.727 25.444C18.2156 27.053 20.4784 27.4163 22.0992 26.468C23.72 25.5194 24.5408 23.3506 24.4108 20.3612C24.2766 17.277 23.1462 13.7231 21.2276 10.3542C19.3092 6.98543 16.839 4.2162 14.2716 2.55612C12.691 1.53415 11.2014 1.01466 9.90959 1.01466Z" fill="#EFEFEF"/>
<path d="M9.90599 27.7964C9.02599 27.7964 8.21579 27.5889 7.50059 27.1702C5.60879 26.0629 4.64619 23.6319 4.78979 20.3253C4.92959 17.1132 6.09779 13.4281 8.07919 9.94874C10.0606 6.46941 12.6244 3.60103 15.2982 1.87221C18.0506 0.0929011 20.6088 -0.277966 22.5006 0.829767C24.3924 1.93709 25.355 4.36811 25.2114 7.67468C25.0716 10.8868 23.9034 14.5719 21.922 18.0512C19.9406 21.5306 17.3768 24.399 14.703 26.1278C12.991 27.2345 11.3542 27.7964 9.90599 27.7964ZM20.0904 1.01449C18.7986 1.01449 17.3092 1.53399 15.7282 2.55595C13.1608 4.21603 10.6906 6.98526 8.77219 10.3541C6.85359 13.7229 5.72319 17.2767 5.58899 20.361C5.45899 23.3504 6.27979 25.5193 7.90059 26.4678C9.52099 27.4162 11.784 27.0528 14.2728 25.4438C16.8402 23.7837 19.3104 21.0145 21.2288 17.6457C23.1474 14.2769 24.2778 10.7231 24.412 7.63879C24.542 4.64935 23.7212 2.48052 22.1004 1.53196C21.5094 1.18603 20.8324 1.01449 20.0904 1.01449Z" fill="#EFEFEF"/>
<path d="M15 22.1028C11.0372 22.1028 7.3052 21.2859 4.4918 19.8026C1.5952 18.2756 0 16.2148 0 14.0002C0 11.7855 1.5952 9.72475 4.4918 8.19769C7.3052 6.71442 11.0372 5.89746 15 5.89746C18.9628 5.89746 22.6948 6.71442 25.5082 8.19769C28.4048 9.72475 30 11.7855 30 14.0002C30 16.2148 28.4048 18.2756 25.5082 19.8026C22.6948 21.2859 18.9628 22.1028 15 22.1028ZM15 6.70854C7.1702 6.70854 0.8 9.97942 0.8 14.0002C0.8 18.0209 7.1702 21.2918 15 21.2918C22.8298 21.2918 29.2 18.0209 29.2 14.0002C29.2 9.97942 22.8298 6.70854 15 6.70854Z" fill="#EFEFEF"/>
<path d="M14.9999 17.0416C16.6568 17.0416 17.9999 15.6798 17.9999 14C17.9999 12.3202 16.6568 10.9585 14.9999 10.9585C13.3431 10.9585 11.9999 12.3202 11.9999 14C11.9999 15.6798 13.3431 17.0416 14.9999 17.0416Z" fill="#00FFCC"/>
<path d="M15 17.4474C13.1252 17.4474 11.6 15.9011 11.6 14.0003C11.6 12.0995 13.1252 10.5532 15 10.5532C16.8748 10.5532 18.4 12.0995 18.4 14.0003C18.4 15.9011 16.8748 17.4474 15 17.4474ZM15 11.3643C13.5664 11.3643 12.4 12.5469 12.4 14.0003C12.4 15.4538 13.5664 16.6363 15 16.6363C16.4336 16.6363 17.6 15.4538 17.6 14.0003C17.6 12.5469 16.4336 11.3643 15 11.3643Z" fill="#00FFCC"/>
<path d="M38.9927 14.2865C37.6052 14.2865 36.3473 13.9882 35.2191 13.3917C34.1039 12.7822 33.2221 11.9458 32.5737 10.8825C31.9383 9.80617 31.6206 8.59369 31.6206 7.24505C31.6206 5.89642 31.9383 4.69042 32.5737 3.62708C33.2221 2.55076 34.1039 1.71435 35.2191 1.11783C36.3473 0.508353 37.6117 0.203613 39.0122 0.203613C40.1922 0.203613 41.2556 0.411096 42.2022 0.826061C43.1618 1.24103 43.9658 1.83754 44.6142 2.6156L42.5912 4.48294C41.6705 3.41959 40.5294 2.88792 39.1678 2.88792C38.3249 2.88792 37.5728 3.07595 36.9114 3.45201C36.2501 3.81511 35.7313 4.32733 35.3553 4.98868C34.9922 5.65003 34.8106 6.40216 34.8106 7.24505C34.8106 8.08795 34.9922 8.84008 35.3553 9.50143C35.7313 10.1628 36.2501 10.6815 36.9114 11.0575C37.5728 11.4206 38.3249 11.6022 39.1678 11.6022C40.5294 11.6022 41.6705 11.064 42.5912 9.98772L44.6142 11.8551C43.9658 12.6461 43.1618 13.2491 42.2022 13.664C41.2426 14.079 40.1728 14.2865 38.9927 14.2865Z" fill="white"/>
<path d="M54.6074 14.2865C53.1939 14.2865 51.9166 13.9818 50.7755 13.3723C49.6473 12.7628 48.759 11.9264 48.1106 10.863C47.4752 9.78672 47.1575 8.58072 47.1575 7.24505C47.1575 5.90938 47.4752 4.70988 48.1106 3.64653C48.759 2.57021 49.6473 1.72731 50.7755 1.11783C51.9166 0.508353 53.1939 0.203613 54.6074 0.203613C56.0209 0.203613 57.2917 0.508353 58.4199 1.11783C59.5481 1.72731 60.4364 2.57021 61.0848 3.64653C61.7331 4.70988 62.0573 5.90938 62.0573 7.24505C62.0573 8.58072 61.7331 9.78672 61.0848 10.863C60.4364 11.9264 59.5481 12.7628 58.4199 13.3723C57.2917 13.9818 56.0209 14.2865 54.6074 14.2865ZM54.6074 11.6022C55.4114 11.6022 56.1376 11.4206 56.786 11.0575C57.4344 10.6815 57.9401 10.1628 58.3032 9.50143C58.6793 8.84008 58.8673 8.08795 58.8673 7.24505C58.8673 6.40216 58.6793 5.65003 58.3032 4.98868C57.9401 4.32733 57.4344 3.81511 56.786 3.45201C56.1376 3.07595 55.4114 2.88792 54.6074 2.88792C53.8034 2.88792 53.0772 3.07595 52.4288 3.45201C51.7805 3.81511 51.2682 4.32733 50.8922 4.98868C50.5291 5.65003 50.3475 6.40216 50.3475 7.24505C50.3475 8.08795 50.5291 8.84008 50.8922 9.50143C51.2682 10.1628 51.7805 10.6815 52.4288 11.0575C53.0772 11.4206 53.8034 11.6022 54.6074 11.6022Z" fill="white"/>
<path d="M78.3723 14.0531L78.3528 5.88345L74.3458 12.6137H72.9258L68.9383 6.05851V14.0531H65.9817V0.437031H68.5882L73.6845 8.89843L78.7029 0.437031H81.29L81.3289 14.0531H78.3723Z" fill="white"/>
<path d="M98.5061 14.0531L98.4866 5.88345L94.4796 12.6137H93.0597L89.0721 6.05851V14.0531H86.1155V0.437031H88.722L93.8183 8.89843L98.8368 0.437031H101.424L101.463 14.0531H98.5061Z" fill="white"/>
<path d="M112.299 14.2865C110.354 14.2865 108.836 13.7483 107.747 12.672C106.671 11.5957 106.133 10.059 106.133 8.06202V0.437031H109.284V7.94531C109.284 10.3832 110.295 11.6022 112.318 11.6022C113.304 11.6022 114.056 11.3104 114.575 10.7269C115.093 10.1304 115.353 9.20317 115.353 7.94531V0.437031H118.465V8.06202C118.465 10.059 117.92 11.5957 116.831 12.672C115.755 13.7483 114.244 14.2865 112.299 14.2865Z" fill="white"/>
<path d="M135.623 0.437031V14.0531H133.036L126.247 5.78619V14.0531H123.135V0.437031H125.741L132.51 8.70392V0.437031H135.623Z" fill="white"/>
<path d="M140.4 0.437031H143.551V14.0531H140.4V0.437031Z" fill="white"/>
<path d="M151.159 3.00463H146.802V0.437031H158.668V3.00463H154.311V14.0531H151.159V3.00463Z" fill="white"/>
<path d="M168.208 9.22911V14.0531H165.057V9.1902L159.786 0.437031H163.131L166.769 6.48645L170.406 0.437031H173.499L168.208 9.22911Z" fill="white"/>
<path d="M35.6704 27.7936C34.8508 27.7936 34.0572 27.6691 33.2895 27.4201C32.5322 27.1608 31.9357 26.8288 31.5 26.4242L32.0758 25.2105C32.4907 25.5839 33.0198 25.89 33.663 26.1286C34.3166 26.3568 34.9857 26.4709 35.6704 26.4709C36.573 26.4709 37.2473 26.3205 37.6934 26.0196C38.1394 25.7084 38.3625 25.2986 38.3625 24.7903C38.3625 24.4168 38.238 24.116 37.989 23.8878C37.7504 23.6491 37.4496 23.4676 37.0865 23.3431C36.7337 23.2186 36.2306 23.0786 35.577 22.923C34.7575 22.7259 34.0935 22.5287 33.5852 22.3316C33.0872 22.1345 32.6567 21.8337 32.2936 21.4291C31.9409 21.0141 31.7645 20.4591 31.7645 19.764C31.7645 19.1831 31.915 18.6592 32.2158 18.1924C32.527 17.7255 32.9939 17.3521 33.6163 17.0719C34.2388 16.7918 35.0116 16.6518 35.9349 16.6518C36.5781 16.6518 37.211 16.7348 37.8334 16.9008C38.4559 17.0668 38.9901 17.3054 39.4362 17.6166L38.9227 18.8615C38.4662 18.571 37.9786 18.3532 37.4599 18.2079C36.9412 18.0523 36.4329 17.9745 35.9349 17.9745C35.0531 17.9745 34.3892 18.1353 33.9431 18.4569C33.5074 18.7785 33.2895 19.1935 33.2895 19.7018C33.2895 20.0753 33.414 20.3813 33.663 20.6199C33.912 20.8481 34.218 21.0297 34.5811 21.1645C34.9546 21.289 35.4577 21.4239 36.0906 21.5691C36.9101 21.7662 37.5689 21.9634 38.0668 22.1605C38.5648 22.3576 38.9901 22.6584 39.3428 23.063C39.7059 23.4676 39.8875 24.0122 39.8875 24.6969C39.8875 25.2675 39.7319 25.7914 39.4206 26.2686C39.1094 26.7355 38.6374 27.1089 38.0046 27.389C37.3718 27.6587 36.5937 27.7936 35.6704 27.7936Z" fill="white"/>
<path d="M46.4091 27.7936C45.3198 27.7936 44.3343 27.555 43.4525 27.0778C42.581 26.5902 41.8963 25.9263 41.3984 25.086C40.9004 24.2353 40.6514 23.2809 40.6514 22.2227C40.6514 21.1645 40.9004 20.2153 41.3984 19.375C41.8963 18.5243 42.5862 17.8604 43.468 17.3832C44.3498 16.8956 45.3354 16.6518 46.4246 16.6518C47.2753 16.6518 48.0534 16.797 48.7588 17.0875C49.4643 17.3676 50.066 17.7878 50.5639 18.348L49.5524 19.3283C48.7329 18.4673 47.711 18.0367 46.4869 18.0367C45.6777 18.0367 44.9463 18.2183 44.2928 18.5814C43.6392 18.9445 43.1257 19.4476 42.7522 20.0908C42.3891 20.7236 42.2076 21.4343 42.2076 22.2227C42.2076 23.0111 42.3891 23.727 42.7522 24.3701C43.1257 25.003 43.6392 25.5009 44.2928 25.864C44.9463 26.2271 45.6777 26.4087 46.4869 26.4087C47.7007 26.4087 48.7225 25.973 49.5524 25.1015L50.5639 26.0819C50.066 26.6421 49.4591 27.0674 48.7433 27.3579C48.0378 27.6484 47.2598 27.7936 46.4091 27.7936Z" fill="white"/>
<path d="M52.1614 16.7763H53.7175V27.6691H52.1614V16.7763Z" fill="white"/>
<path d="M64.2613 26.3153V27.6691H56.3562V16.7763H64.0434V18.1301H57.9123V21.4758H63.3743V22.7985H57.9123V26.3153H64.2613Z" fill="white"/>
<path d="M75.5264 16.7763V27.6691H74.2504L67.7147 19.5462V27.6691H66.1586V16.7763H67.4346L73.9703 24.8992V16.7763H75.5264Z" fill="white"/>
<path d="M83.035 27.7936C81.9458 27.7936 80.9602 27.555 80.0784 27.0778C79.207 26.5902 78.5223 25.9263 78.0243 25.086C77.5264 24.2353 77.2774 23.2809 77.2774 22.2227C77.2774 21.1645 77.5264 20.2153 78.0243 19.375C78.5223 18.5243 79.2122 17.8604 80.094 17.3832C80.9758 16.8956 81.9613 16.6518 83.0506 16.6518C83.9013 16.6518 84.6793 16.797 85.3848 17.0875C86.0902 17.3676 86.6919 17.7878 87.1899 18.348L86.1784 19.3283C85.3588 18.4673 84.337 18.0367 83.1128 18.0367C82.3037 18.0367 81.5723 18.2183 80.9187 18.5814C80.2651 18.9445 79.7516 19.4476 79.3782 20.0908C79.0151 20.7236 78.8335 21.4343 78.8335 22.2227C78.8335 23.0111 79.0151 23.727 79.3782 24.3701C79.7516 25.003 80.2651 25.5009 80.9187 25.864C81.5723 26.2271 82.3037 26.4087 83.1128 26.4087C84.3266 26.4087 85.3485 25.973 86.1784 25.1015L87.1899 26.0819C86.6919 26.6421 86.085 27.0674 85.3692 27.3579C84.6638 27.6484 83.8857 27.7936 83.035 27.7936Z" fill="white"/>
<path d="M96.6924 26.3153V27.6691H88.7873V16.7763H96.4746V18.1301H90.3434V21.4758H95.8054V22.7985H90.3434V26.3153H96.6924Z" fill="white"/>
<path d="M112.245 27.6691L112.23 19.7329L108.293 26.3464H107.577L103.64 19.7796V27.6691H102.146V16.7763H103.422L107.966 24.4324L112.448 16.7763H113.724L113.739 27.6691H112.245Z" fill="white"/>
<path d="M120.899 27.7936C119.446 27.7936 118.316 27.3786 117.506 26.5487C116.697 25.7188 116.293 24.5258 116.293 22.9696V16.7763H117.849V22.9074C117.849 25.2416 118.871 26.4087 120.914 26.4087C121.91 26.4087 122.673 26.1234 123.202 25.5528C123.731 24.9718 123.995 24.09 123.995 22.9074V16.7763H125.505V22.9696C125.505 24.5361 125.1 25.7343 124.291 26.5643C123.482 27.3838 122.351 27.7936 120.899 27.7936Z" fill="white"/>
<path d="M131.247 27.7936C130.428 27.7936 129.634 27.6691 128.866 27.4201C128.109 27.1608 127.512 26.8288 127.077 26.4242L127.653 25.2105C128.067 25.5839 128.597 25.89 129.24 26.1286C129.893 26.3568 130.562 26.4709 131.247 26.4709C132.15 26.4709 132.824 26.3205 133.27 26.0196C133.716 25.7084 133.939 25.2986 133.939 24.7903C133.939 24.4168 133.815 24.116 133.566 23.8878C133.327 23.6491 133.026 23.4676 132.663 23.3431C132.31 23.2186 131.807 23.0786 131.154 22.923C130.334 22.7259 129.67 22.5287 129.162 22.3316C128.664 22.1345 128.233 21.8337 127.87 21.4291C127.518 21.0141 127.341 20.4591 127.341 19.764C127.341 19.1831 127.492 18.6592 127.793 18.1924C128.104 17.7255 128.571 17.3521 129.193 17.0719C129.816 16.7918 130.588 16.6518 131.512 16.6518C132.155 16.6518 132.788 16.7348 133.41 16.9008C134.033 17.0668 134.567 17.3054 135.013 17.6166L134.499 18.8615C134.043 18.571 133.555 18.3532 133.037 18.2079C132.518 18.0523 132.01 17.9745 131.512 17.9745C130.63 17.9745 129.966 18.1353 129.52 18.4569C129.084 18.7785 128.866 19.1935 128.866 19.7018C128.866 20.0753 128.991 20.3813 129.24 20.6199C129.489 20.8481 129.795 21.0297 130.158 21.1645C130.531 21.289 131.034 21.4239 131.667 21.5691C132.487 21.7662 133.146 21.9634 133.644 22.1605C134.142 22.3576 134.567 22.6584 134.92 23.063C135.283 23.4676 135.464 24.0122 135.464 24.6969C135.464 25.2675 135.309 25.7914 134.997 26.2686C134.686 26.7355 134.214 27.1089 133.581 27.389C132.949 27.6587 132.17 27.7936 131.247 27.7936Z" fill="white"/>
<path d="M145.02 26.3153V27.6691H137.115V16.7763H144.802V18.1301H138.671V21.4758H144.133V22.7985H138.671V26.3153H145.02Z" fill="white"/>
<path d="M151.43 27.7936C149.978 27.7936 148.847 27.3786 148.038 26.5487C147.229 25.7188 146.824 24.5258 146.824 22.9696V16.7763H148.38V22.9074C148.38 25.2416 149.402 26.4087 151.446 26.4087C152.442 26.4087 153.204 26.1234 153.733 25.5528C154.262 24.9718 154.527 24.09 154.527 22.9074V16.7763H156.036V22.9696C156.036 24.5361 155.632 25.7343 154.823 26.5643C154.013 27.3838 152.883 27.7936 151.43 27.7936Z" fill="white"/>
<path d="M168.703 27.6691L168.688 19.7329L164.751 26.3464H164.035L160.098 19.7796V27.6691H158.604V16.7763H159.88L164.424 24.4324L168.906 16.7763H170.182L170.197 27.6691H168.703Z" fill="white"/>
</svg>
