<svg xmlns="http://www.w3.org/2000/svg" viewBox="0 0 1940.61 2003.18"><defs><style>.cls-1{isolation:isolate;}.cls-2{fill:#34b7a7;mix-blend-mode:overlay;}</style></defs><g class="cls-1"><g id="Layer_2" data-name="Layer 2"><path class="cls-2" d="M1940.61,482.91a30.46,30.46,0,0,0-60.31-6.08l-434-.2L1388,418.23.69,417.59V429.7l1382.29.64,58.35,58.4,439,.2a30.46,30.46,0,0,0,60.32-6Zm-12.11,0a18.36,18.36,0,1,1-18.34-18.35A18.36,18.36,0,0,1,1928.5,482.9Z"/><path class="cls-2" d="M1718.9,350.44a30.46,30.46,0,0,0-60.31-6.08l-434-.2-58.35-58.4L.75,285.22v12.11l1160.52.54,58.35,58.4,439,.2a30.46,30.46,0,0,0,60.32-6Zm-12.11,0a18.36,18.36,0,1,1-18.35-18.36A18.37,18.37,0,0,1,1706.79,350.44Z"/><path class="cls-2" d="M1940.61,482.91a30.46,30.46,0,0,0-60.31-6.08l-434-.2L1388,418.23.69,417.59V429.7l1382.29.64,58.35,58.4,439,.2a30.46,30.46,0,0,0,60.32-6Zm-12.11,0a18.36,18.36,0,1,1-18.34-18.35A18.36,18.36,0,0,1,1928.5,482.9Z"/><path class="cls-2" d="M1718.9,350.44a30.46,30.46,0,0,0-60.31-6.08l-434-.2-58.35-58.4L.75,285.22v12.11l1160.52.54,58.35,58.4,439,.2a30.46,30.46,0,0,0,60.32-6Zm-12.11,0a18.36,18.36,0,1,1-18.35-18.36A18.37,18.37,0,0,1,1706.79,350.44Z"/><path class="cls-2" d="M1381.62,197.43a30.46,30.46,0,0,0-60.31-6.08l-433.95-.2L829,132.75.82,132.37v12.11l823.17.38,58.35,58.4,439,.2a30.46,30.46,0,0,0,60.31-6Zm-12.11,0a18.35,18.35,0,1,1-18.34-18.36A18.36,18.36,0,0,1,1369.51,197.43Z"/><path class="cls-2" d="M1159.91,65a30.46,30.46,0,0,0-60.31-6.08l-434-.2L607.29.28.88,0V12.11l601.4.28,58.35,58.4,439,.2a30.46,30.46,0,0,0,60.32-6Zm-12.11,0a18.35,18.35,0,1,1-18.34-18.36A18.36,18.36,0,0,1,1147.8,65Z"/><path class="cls-2" d="M1381.62,197.43a30.46,30.46,0,0,0-60.31-6.08l-433.95-.2L829,132.75.82,132.37v12.11l823.17.38,58.35,58.4,439,.2a30.46,30.46,0,0,0,60.31-6Zm-12.11,0a18.35,18.35,0,1,1-18.34-18.36A18.36,18.36,0,0,1,1369.51,197.43Z"/><path class="cls-2" d="M1159.91,65a30.46,30.46,0,0,0-60.31-6.08l-434-.2L607.29.28.88,0V12.11l601.4.28,58.35,58.4,439,.2a30.46,30.46,0,0,0,60.32-6Zm-12.11,0a18.35,18.35,0,1,1-18.34-18.36A18.36,18.36,0,0,1,1147.8,65Z"/><path class="cls-2" d="M1723.91,1471.27a30.47,30.47,0,0,0-60.32-6.08l-433.95-.2-58.36-58.4-1171-.54v12.11l1166,.54,58.36,58.4,439,.2a30.46,30.46,0,0,0,60.32-6Zm-12.12,0a18.35,18.35,0,1,1-18.34-18.36A18.38,18.38,0,0,1,1711.79,1471.27Z"/><path class="cls-2" d="M1502.19,1338.8a30.46,30.46,0,0,0-60.31-6.08l-434-.2-58.35-58.4L.3,1273.68v12.12l944.26.43,58.36,58.4,439,.2a30.46,30.46,0,0,0,60.31-6Zm-12.11,0a18.35,18.35,0,1,1-18.34-18.36A18.38,18.38,0,0,1,1490.08,1338.8Z"/><path class="cls-2" d="M1723.91,1471.27a30.47,30.47,0,0,0-60.32-6.08l-433.95-.2-58.36-58.4-1171-.54v12.11l1166,.54,58.36,58.4,439,.2a30.46,30.46,0,0,0,60.32-6Zm-12.12,0a18.35,18.35,0,1,1-18.34-18.36A18.38,18.38,0,0,1,1711.79,1471.27Z"/><path class="cls-2" d="M1502.19,1338.8a30.46,30.46,0,0,0-60.31-6.08l-434-.2-58.35-58.4L.3,1273.68v12.12l944.26.43,58.36,58.4,439,.2a30.46,30.46,0,0,0,60.31-6Zm-12.11,0a18.35,18.35,0,1,1-18.34-18.36A18.38,18.38,0,0,1,1490.08,1338.8Z"/><path class="cls-2" d="M1010.3,1154.11A30.46,30.46,0,0,0,950,1148l-434-.2-58.35-58.4-457.3-.21v12.12l452.28.2,58.35,58.4,439,.2a30.46,30.46,0,0,0,60.31-6Zm-12.11,0a18.35,18.35,0,1,1-18.34-18.35A18.36,18.36,0,0,1,998.19,1154.1Z"/><path class="cls-2" d="M788.59,1021.64a30.46,30.46,0,0,0-60.31-6.09l-434-.2L236,957,.44,956.85V969l230.51.1,58.35,58.4,439,.2a30.46,30.46,0,0,0,60.32-6Zm-12.11,0a18.35,18.35,0,1,1-18.34-18.35A18.36,18.36,0,0,1,776.48,1021.63Z"/><path class="cls-2" d="M1010.3,1154.11A30.46,30.46,0,0,0,950,1148l-434-.2-58.35-58.4-457.3-.21v12.12l452.28.2,58.35,58.4,439,.2a30.46,30.46,0,0,0,60.31-6Zm-12.11,0a18.35,18.35,0,1,1-18.34-18.35A18.36,18.36,0,0,1,998.19,1154.1Z"/><path class="cls-2" d="M788.59,1021.64a30.46,30.46,0,0,0-60.31-6.09l-434-.2L236,957,.44,956.85V969l230.51.1,58.35,58.4,439,.2a30.46,30.46,0,0,0,60.32-6Zm-12.11,0a18.35,18.35,0,1,1-18.34-18.35A18.36,18.36,0,0,1,776.48,1021.63Z"/><path class="cls-2" d="M805.07,781.19a30.46,30.46,0,0,0-60.31-6.09l-434-.2-58.35-58.4L.55,716.39V728.5l246.88.11L305.78,787l439,.21a30.46,30.46,0,0,0,60.32-6Zm-12.11,0a18.36,18.36,0,1,1-18.35-18.35A18.37,18.37,0,0,1,793,781.18Z"/><path class="cls-2" d="M583.36,648.72a30.46,30.46,0,0,0-60.31-6.09l-434-.2L30.74,584H.61v12.11H25.72l58.35,58.4,439,.21a30.46,30.46,0,0,0,60.32-6Zm-12.11,0a18.36,18.36,0,1,1-18.35-18.35A18.38,18.38,0,0,1,571.25,648.71Z"/><path class="cls-2" d="M805.07,781.19a30.46,30.46,0,0,0-60.31-6.09l-434-.2-58.35-58.4L.55,716.39V728.5l246.88.11L305.78,787l439,.21a30.46,30.46,0,0,0,60.32-6Zm-12.11,0a18.36,18.36,0,1,1-18.35-18.35A18.37,18.37,0,0,1,793,781.18Z"/><path class="cls-2" d="M583.36,648.72a30.46,30.46,0,0,0-60.31-6.09l-434-.2L30.74,584H.61v12.11H25.72l58.35,58.4,439,.21a30.46,30.46,0,0,0,60.32-6Zm-12.11,0a18.36,18.36,0,1,1-18.35-18.35A18.38,18.38,0,0,1,571.25,648.71Z"/><path class="cls-2" d="M1811.58,1972.72a30.46,30.46,0,0,0-60.31-6.08l-434-.2L1259,1908,0,1907.46v12.11l1253.94.58,58.35,58.4,439,.2a30.46,30.46,0,0,0,60.31-6Zm-12.11,0a18.35,18.35,0,1,1-18.34-18.36A18.38,18.38,0,0,1,1799.47,1972.72Z"/><path class="cls-2" d="M1811.58,1972.72a30.46,30.46,0,0,0-60.31-6.08l-434-.2L1259,1908,0,1907.46v12.11l1253.94.58,58.35,58.4,439,.2a30.46,30.46,0,0,0,60.31-6Zm-12.11,0a18.35,18.35,0,1,1-18.34-18.36A18.38,18.38,0,0,1,1799.47,1972.72Z"/><path class="cls-2" d="M1319.69,1788a30.46,30.46,0,0,0-60.31-6.09l-434-.2-58.35-58.4L.09,1723v12.11l762,.35,58.35,58.4,439,.2a30.46,30.46,0,0,0,60.32-6Zm-12.11,0a18.35,18.35,0,1,1-18.34-18.35A18.37,18.37,0,0,1,1307.58,1788Z"/><path class="cls-2" d="M1098,1655.56a30.46,30.46,0,0,0-60.31-6.09l-434-.2-58.35-58.4L.15,1590.62v12.11l540.19.25,58.35,58.4,439,.2a30.46,30.46,0,0,0,60.32-6Zm-12.11,0a18.36,18.36,0,1,1-18.34-18.35A18.37,18.37,0,0,1,1085.87,1655.55Z"/><path class="cls-2" d="M1319.69,1788a30.46,30.46,0,0,0-60.31-6.09l-434-.2-58.35-58.4L.09,1723v12.11l762,.35,58.35,58.4,439,.2a30.46,30.46,0,0,0,60.32-6Zm-12.11,0a18.35,18.35,0,1,1-18.34-18.35A18.37,18.37,0,0,1,1307.58,1788Z"/><path class="cls-2" d="M1098,1655.56a30.46,30.46,0,0,0-60.31-6.09l-434-.2-58.35-58.4L.15,1590.62v12.11l540.19.25,58.35,58.4,439,.2a30.46,30.46,0,0,0,60.32-6Zm-12.11,0a18.36,18.36,0,1,1-18.34-18.35A18.37,18.37,0,0,1,1085.87,1655.55Z"/></g></g></svg>